<mxfile host="app.diagrams.net" modified="2023-11-29T12:37:30.701Z" agent="Mozilla/5.0 (X11; Linux x86_64) AppleWebKit/537.36 (KHTML, like Gecko) Chrome/119.0.0.0 Safari/537.36" version="22.1.4" etag="AsuGxjU5Na6xAItYzMVs" type="github">
  <diagram name="Page-1" id="RZmxLkSd9HDzIl610uK2">
    <mxGraphModel>
      <root>
        <mxCell id="0" />
        <mxCell id="1" parent="0" />
      </root>
    </mxGraphModel>
  </diagram>
</mxfile>
